<svg id="logo" xmlns="http://www.w3.org/2000/svg" viewBox="0 0 44.31 64"><defs><style>.cls-1{fill:#444443;}.cls-2{fill:#353535;}.cls-3{fill:#3d3d3d;}.cls-4{fill:#515151;}</style></defs><path class="cls-1" d="M377.33,512.11h-.2A9.84,9.84,0,0,0,374,531.2a10,10,0,0,0,3.38.6h0a9.85,9.85,0,1,0,0-19.69Z" transform="translate(-342.87 -467.8)"/><path class="cls-1" d="M384.52,467.8h-17v39.39a19.69,19.69,0,0,0,19.7-19.69V467.8Z" transform="translate(-342.87 -467.8)"/><path class="cls-1" d="M342.87,487.5a19.68,19.68,0,0,0,13.21,18.58,19.86,19.86,0,0,0,6.48,1.11V467.8A19.69,19.69,0,0,0,342.87,487.5Z" transform="translate(-342.87 -467.8)"/><path class="cls-2" d="M377.33,531.8h0a9.85,9.85,0,1,0,0-19.69h-.2L374,531.2A10,10,0,0,0,377.33,531.8Z" transform="translate(-342.87 -467.8)"/><path class="cls-3" d="M367.48,522A9.85,9.85,0,0,0,374,531.2l3.18-19.08A9.85,9.85,0,0,0,367.48,522Z" transform="translate(-342.87 -467.8)"/><polygon class="cls-1" points="24.61 0 24.61 16.18 32.97 0 24.61 0"/><path class="cls-3" d="M375.83,467.8,367.48,484v23.21a19.65,19.65,0,0,0,11-3.38l6-36Z" transform="translate(-342.87 -467.8)"/><path class="cls-2" d="M387.18,487.5V467.8h-2.66l-6,36A19.69,19.69,0,0,0,387.18,487.5Z" transform="translate(-342.87 -467.8)"/><path class="cls-3" d="M362.56,507.19V493.52l-6.48,12.56A19.86,19.86,0,0,0,362.56,507.19Z" transform="translate(-342.87 -467.8)"/><path class="cls-4" d="M362.56,467.8A19.69,19.69,0,0,0,344.35,495l18.21-23.34Z" transform="translate(-342.87 -467.8)"/><path class="cls-1" d="M362.56,471.64,344.35,495a19.75,19.75,0,0,0,11.73,11.1l6.48-12.56V471.64Z" transform="translate(-342.87 -467.8)"/></svg>