<svg id="Layer_1" data-name="Layer 1" xmlns="http://www.w3.org/2000/svg" viewBox="0 0 388.07 446.85"><defs><style>.cls-1{fill:#ffce4b;}</style></defs><path className="cls-1 logo__path-1" d="M748.11,258.51a7,7,0,0,0-12.82,1.74l-18,69q-3.72,16-7.49,35.27c-.51,2.63-1,5.31-1.54,8-.15.75-.29,1.53-.43,2.29-.37,2-.74,3.93-1.11,5.94-.17.94-.34,1.9-.52,2.86-.35,1.9-.69,3.83-1,5.78l-.51,2.88c-.4,2.27-.81,4.58-1.21,6.9-.11.63-.21,1.24-.32,1.87q-.76,4.44-1.53,9c-.13.79-.26,1.61-.4,2.41-.37,2.28-.75,4.57-1.13,6.9l-.54,3.35c-.34,2.13-.69,4.27-1,6.44-.18,1.12-.36,2.24-.53,3.37-.11.66-.21,1.31-.32,2a9.67,9.67,0,0,1-9,8.21c-.27,0-.53,0-.81,0h-.17a9.55,9.55,0,0,1-9.18-8.15c-.23-1.44-.47-2.91-.72-4.38,0-.31-.09-.61-.15-.93-.33-2-.67-4.08-1-6.16-.1-.61-.21-1.23-.32-1.84-.25-1.51-.51-3-.78-4.56-.13-.77-.27-1.55-.4-2.33l-.75-4.29-.45-2.5c-.26-1.46-.52-2.93-.79-4.42-.14-.82-.29-1.63-.44-2.46-.29-1.59-.59-3.21-.88-4.83l-.42-2.26c-.44-2.36-.88-4.75-1.34-7.18l-2.76-14.67-1.37-7.29-2.72-14.44c-.27-1.47-.6-2.93-1-4.38l-13.61-52.87a7,7,0,0,0-13.55,0l-13.94,53.51q-4.87,20.91-9.79,46.08-1,5.16-2,10.5c-.19,1-.37,2-.56,3-.48,2.56-1,5.14-1.44,7.76-.23,1.24-.46,2.48-.69,3.74l-1.36,7.55c-.22,1.25-.44,2.5-.67,3.77-.52,3-1.05,6-1.57,9-.14.81-.28,1.61-.42,2.43q-1,5.8-2,11.77c-.17,1-.34,2.11-.52,3.16-.49,3-1,6-1.48,9-.24,1.45-.47,2.92-.71,4.38-.45,2.78-.89,5.58-1.34,8.41-.24,1.47-.47,2.93-.7,4.41-.14.87-.27,1.71-.41,2.58a12.65,12.65,0,0,1-11.72,10.74c-.36,0-.7.05-1.06.05h-.22a12.49,12.49,0,0,1-12-10.65c-.3-1.88-.62-3.8-.93-5.73-.07-.41-.13-.8-.2-1.21-.44-2.64-.88-5.33-1.34-8.05-.14-.8-.28-1.61-.41-2.41-.34-2-.68-3.95-1-6-.18-1-.35-2-.53-3q-.48-2.78-1-5.61c-.19-1.08-.39-2.17-.58-3.27-.34-1.9-.69-3.83-1-5.77-.19-1.07-.38-2.13-.58-3.21-.37-2.08-.76-4.19-1.15-6.31-.18-1-.36-2-.54-3q-.85-4.62-1.75-9.38l-3.61-19.17L554,392.4l-3.55-18.87c-.36-1.92-.79-3.82-1.28-5.72l-23.44-91A7,7,0,0,0,512.91,275L442.18,397.53a7,7,0,0,0,0,7l93.52,162a7,7,0,0,0,6.06,3.5h187a7,7,0,0,0,6.05-3.5l93.52-162a7,7,0,0,0,0-7Z" transform="translate(-441.24 -123.15)"/><path class="cls-1" d="M687.87,158.46a32,32,0,0,0-31,40l1.38,5.39,7.27,28.23L675.82,272c.17.68.32,1.37.45,2.06l1.28,6.79.65,3.43,1.3,6.9c.21,1.14.42,2.26.63,3.38.06.35.13.7.19,1.06l.42,2.27c.07.39.14.77.2,1.16.13.7.25,1.39.38,2.07l.21,1.18c.12.68.23,1.35.35,2,.06.36.13.73.19,1.09.12.73.25,1.44.37,2.15,0,.29.1.58.14.87.17,1,.33,1.94.49,2.89,0,.15,0,.29.07.44l.33,2.06a4.49,4.49,0,0,0,4.32,3.83h.08l.38,0a4.55,4.55,0,0,0,4.22-3.86c0-.32.1-.62.15-.93.08-.54.17-1.06.25-1.59q.24-1.53.48-3c.09-.52.17-1.05.26-1.57.18-1.1.36-2.18.53-3.25.07-.38.13-.76.19-1.13.24-1.44.48-2.85.72-4.24l.15-.88q.28-1.64.57-3.24l.24-1.36c.16-.92.32-1.82.49-2.72l.24-1.34c.18-.95.35-1.88.52-2.8.07-.36.14-.72.2-1.07.25-1.28.49-2.55.73-3.78q1.77-9,3.52-16.59l8.39-32.16,8.73-33.53A32,32,0,0,0,687.87,158.46Z" transform="translate(-441.24 -123.15)"/><path class="cls-1" d="M622.7,152.84a41.81,41.81,0,0,0-80.51,22.54l14.59,56.67,10.15,39.39c.23.89.43,1.79.59,2.69L569.2,283l.84,4.48,1.7,9c.28,1.49.55,3,.82,4.41.08.47.17.92.25,1.39.19,1,.37,2,.55,3l.27,1.52c.16.91.33,1.82.48,2.71.1.52.19,1,.28,1.54.15.89.31,1.77.46,2.64.08.47.17.95.25,1.43l.48,2.8c.06.38.13.76.19,1.13.22,1.28.43,2.55.63,3.79l.09.57c.15.9.3,1.81.44,2.69a5.87,5.87,0,0,0,5.64,5h.11c.17,0,.33,0,.5,0a5.93,5.93,0,0,0,5.51-5.05c.07-.41.13-.8.19-1.21l.33-2.07c.21-1.34.42-2.65.63-4,.12-.69.23-1.38.34-2.06.23-1.43.46-2.84.69-4.24.09-.49.17-1,.25-1.48.31-1.88.63-3.72.94-5.54.06-.39.13-.76.2-1.15.24-1.42.49-2.84.74-4.24.1-.59.21-1.18.31-1.77.22-1.2.43-2.38.64-3.55.11-.59.22-1.18.32-1.76.23-1.23.46-2.45.68-3.65.09-.47.18-.94.26-1.41l.95-4.93c-.66-.41-1.34-.77-2-1.12.7.35,1.38.71,2,1.12q2.33-11.82,4.61-21.68l7.63-29.28,12.47-47.86,2.27-8.69A41.5,41.5,0,0,0,622.7,152.84Z" transform="translate(-441.24 -123.15)"/></svg>