<svg id="Layer_1" data-name="Layer 1" xmlns="http://www.w3.org/2000/svg" viewBox="0 0 512.01 512"><path d="M279.9,370.1a15.88,15.88,0,0,0-21.8,6l-64,112a15.92,15.92,0,0,0,6,21.8,16,16,0,0,0,21.8-6l64-112A16,16,0,0,0,279.9,370.1Z" transform="translate(0.01)"/><path d="M87.9,370.1a15.88,15.88,0,0,0-21.8,6l-64,112a15.92,15.92,0,0,0,6,21.8,16,16,0,0,0,21.8-6l64-112A16,16,0,0,0,87.9,370.1Z" transform="translate(0.01)"/><path d="M471.9,370.1a15.88,15.88,0,0,0-21.8,6l-64,112a15.92,15.92,0,0,0,6,21.8,16,16,0,0,0,21.8-6l64-112A16,16,0,0,0,471.9,370.1Z" transform="translate(0.01)"/><path d="M416,128c-.6,0-1.1.2-1.6.2A78.09,78.09,0,0,0,416,112a80,80,0,0,0-80-80c-24.6,0-46.3,11.3-61,28.8C256.4,24.8,219.3,0,176,0A112,112,0,0,0,64,112a113.72,113.72,0,0,0,2.1,21.2C27.8,145.8,0,181.5,0,224a96,96,0,0,0,96,96H416a96,96,0,0,0,0-192Z" transform="translate(0.01)"/><path d="M184.27,456.59,178,453l4.84-1.3a2.88,2.88,0,0,0,2-3.52l-.75-2.78a2.88,2.88,0,0,0-3.51-2l-13.19,3.54L155.51,440l11.88-6.87,13.18,3.54a2.88,2.88,0,0,0,3.52-2l.74-2.77a2.88,2.88,0,0,0-2-3.52L178,427l6.29-3.63a2.88,2.88,0,0,0,1.06-3.93l-2.88-5a2.88,2.88,0,0,0-3.93-1.06l-6.29,3.63,1.3-4.84a2.88,2.88,0,0,0-2-3.52l-2.77-.75a2.88,2.88,0,0,0-3.52,2l-3.54,13.18L150,429.89V415.46l10-10a3,3,0,0,0,0-4.21l-2.11-2.1a3,3,0,0,0-4.2,0L150,402.82V395.3a3,3,0,0,0-3-3h-6a3,3,0,0,0-3,3v7.52l-3.67-3.66a3,3,0,0,0-4.21,0l-2.12,2.1a3,3,0,0,0,0,4.21l10,10v14.43l-11.7-6.74L122.82,410a2.89,2.89,0,0,0-3.52-2l-2.78.75a2.89,2.89,0,0,0-2,3.52l1.31,4.84-6.29-3.63a2.87,2.87,0,0,0-3.93,1.06l-2.89,5a2.88,2.88,0,0,0,1.06,3.93l6.3,3.63-4.85,1.3a2.89,2.89,0,0,0-2,3.54l.74,2.77a2.88,2.88,0,0,0,3.52,2l13.18-3.54L132.48,440l-11.88,6.87-13.18-3.53a2.88,2.88,0,0,0-3.52,2l-.74,2.78a2.88,2.88,0,0,0,2,3.52l4.84,1.3-6.3,3.65a2.9,2.9,0,0,0-1.06,3.93l2.89,5a2.9,2.9,0,0,0,3.93,1.06l6.29-3.63-1.3,4.84a2.88,2.88,0,0,0,2,3.52l2.77.74a2.88,2.88,0,0,0,3.52-2l3.54-13.18L138,450.09v14.43l-10,10a3,3,0,0,0,0,4.21l2.1,2.1a3,3,0,0,0,4.21,0l3.67-3.67v7.5a3,3,0,0,0,3,3h5.95a3,3,0,0,0,3-3v-7.52l3.67,3.67a3,3,0,0,0,4.21,0l2.1-2.1a3,3,0,0,0,0-4.21l-9.94-10V450.07l11.69,6.74L165.19,470a2.88,2.88,0,0,0,3.52,2l2.77-.74a2.88,2.88,0,0,0,2-3.52l-1.3-4.84,6.29,3.63a2.87,2.87,0,0,0,3.93-1.06l2.88-5a2.84,2.84,0,0,0-1-3.91Z" transform="translate(0.01)"/><path d="M376.27,456.59,370,453l4.84-1.3a2.88,2.88,0,0,0,2-3.52l-.75-2.78a2.88,2.88,0,0,0-3.51-2l-13.19,3.54L347.51,440l11.88-6.87,13.18,3.54a2.88,2.88,0,0,0,3.52-2l.74-2.77a2.88,2.88,0,0,0-2-3.52L370,427l6.29-3.63a2.88,2.88,0,0,0,1.06-3.93l-2.88-5a2.88,2.88,0,0,0-3.93-1.06l-6.29,3.63,1.3-4.84a2.88,2.88,0,0,0-2-3.52l-2.77-.75a2.88,2.88,0,0,0-3.52,2l-3.54,13.18L342,429.89V415.46l10-10a3,3,0,0,0,0-4.21l-2.11-2.1a3,3,0,0,0-4.2,0L342,402.82V395.3a3,3,0,0,0-3-3h-6a3,3,0,0,0-3,3v7.52l-3.67-3.66a3,3,0,0,0-4.21,0l-2.12,2.1a3,3,0,0,0,0,4.21l10,10v14.43l-11.7-6.74L314.82,410a2.89,2.89,0,0,0-3.52-2l-2.78.75a2.89,2.89,0,0,0-2,3.52l1.31,4.84-6.29-3.63a2.87,2.87,0,0,0-3.93,1.06l-2.89,5a2.88,2.88,0,0,0,1.06,3.93l6.3,3.63-4.85,1.3a2.89,2.89,0,0,0-2,3.54l.74,2.77a2.88,2.88,0,0,0,3.52,2l13.18-3.54L324.48,440l-11.88,6.87-13.18-3.53a2.88,2.88,0,0,0-3.52,2l-.74,2.78a2.88,2.88,0,0,0,2,3.52l4.84,1.3-6.3,3.65a2.9,2.9,0,0,0-1.06,3.93l2.89,5a2.9,2.9,0,0,0,3.93,1.06l6.29-3.63-1.3,4.84a2.88,2.88,0,0,0,2,3.52l2.77.74a2.88,2.88,0,0,0,3.52-2l3.54-13.18L330,450.09v14.43l-10,10a3,3,0,0,0,0,4.21l2.1,2.1a3,3,0,0,0,4.21,0l3.67-3.67v7.5a3,3,0,0,0,3,3h5.95a3,3,0,0,0,3-3v-7.52l3.67,3.67a3,3,0,0,0,4.21,0l2.1-2.1a3,3,0,0,0,0-4.21l-9.94-10V450.07l11.69,6.74L357.19,470a2.88,2.88,0,0,0,3.52,2l2.77-.74a2.88,2.88,0,0,0,2-3.52l-1.3-4.84,6.29,3.63a2.87,2.87,0,0,0,3.93-1.06l2.88-5a2.84,2.84,0,0,0-1-3.91Z" transform="translate(0.01)"/></svg>