<svg id="weather-logo" data-name="Layer 1" xmlns="http://www.w3.org/2000/svg" viewBox="0 0 524.91 474.96"><defs><style>.cls-1{fill:#ffd31d;}.cls-2{fill:#10111f;box-shadow: 2px 2px 4px #000;}</style></defs><path className="cls-1" d="M553.14,460.86l-.11-.48-3.8-20.21C548,433.82,547,427.81,546,422.3A21.08,21.08,0,0,0,505,420.08L475.42,524,354,402.49a6,6,0,0,1,0-8.47L606.7,141.27a5.93,5.93,0,0,1,3.92-1.75l30.54,118.6.11.48,3.8,20.21c1.19,6.35,2.28,12.36,3.22,17.87a21.08,21.08,0,0,0,41.05,2.22L718.88,195,840.35,316.49a6,6,0,0,1,0,8.47L587.6,577.71a6,6,0,0,1-3.93,1.75Z" transform="translate(-334.69 -122.01)"/><path className="cls-2" d="M600.88,171.84l23.25,90.32L627.87,282c1.18,6.25,2.24,12.16,3.17,17.6a38.58,38.58,0,0,0,75.13,4l21.4-75.22,15.18,15.18,77.09,77.09L593.42,547.14l-23.25-90.33-3.74-19.87c-1.18-6.26-2.24-12.18-3.17-17.6a38.58,38.58,0,0,0-75.13-4l-21.4,75.22-15.18-15.18-77.09-77.09L600.88,171.84M611.73,122h-.79a23.41,23.41,0,0,0-16.61,6.88h0l-11,11L341.57,381.64h0a23.49,23.49,0,0,0,0,33.22h0l85.22,85.23L464.75,538a15.86,15.86,0,0,0,11.31,4.72,16,16,0,0,0,15.53-11.69l30.2-106.2a3.58,3.58,0,0,1,7,.37q1.44,8.46,3.27,18.17l3.86,20.49c.07.35.15.69.23,1L567,584.9A16.09,16.09,0,0,0,582.57,597h.79A23.41,23.41,0,0,0,600,590.09h0l11-11L852.72,337.34a23.5,23.5,0,0,0,0-33.22h0L767.5,218.89l-38-37.95a15.82,15.82,0,0,0-11.3-4.72,16,16,0,0,0-15.53,11.68h0L672.5,294.11a3.57,3.57,0,0,1-7-.37q-1.45-8.46-3.27-18.17l-3.86-20.49c-.08-.35-.15-.69-.23-1l-30.89-120A16.07,16.07,0,0,0,611.73,122Z" transform="translate(-334.69 -122.01)"/></svg>